amp_velcurve_1=0.202
amp_velcurve_2=0.21534
amp_velcurve_3=0.22957
amp_velcurve_4=0.24474
amp_velcurve_5=0.26091
amp_velcurve_6=0.27815
amp_velcurve_7=0.29653
amp_velcurve_8=0.31612
amp_velcurve_9=0.337
amp_velcurve_10=0.35927
amp_velcurve_11=0.38301
amp_velcurve_12=0.40831
amp_velcurve_13=0.43529
amp_velcurve_14=0.46405
amp_velcurve_15=0.49471
amp_velcurve_16=0.5274
amp_velcurve_17=0.56224
amp_velcurve_18=0.59939
amp_velcurve_19=0.63899
amp_velcurve_20=0.68121
amp_velcurve_21=0.72622
amp_velcurve_22=0.7742
amp_velcurve_23=0.82536
amp_velcurve_24=0.87989
amp_velcurve_25=0.93802
amp_velcurve_26=1
amp_velcurve_27=0.71876
amp_velcurve_28=0.75348
amp_velcurve_29=0.78988
amp_velcurve_30=0.82804
amp_velcurve_31=0.86803
amp_velcurve_32=0.90996
amp_velcurve_33=0.95392
amp_velcurve_34=1
amp_velcurve_35=0.89611
amp_velcurve_36=1
amp_velcurve_37=0.92632
amp_velcurve_38=0.93821
amp_velcurve_39=0.95026
amp_velcurve_40=0.96246
amp_velcurve_41=0.97481
amp_velcurve_42=0.98733
amp_velcurve_43=1
amp_velcurve_44=0.94626
amp_velcurve_45=0.97276
amp_velcurve_46=1
amp_velcurve_47=0.96623
amp_velcurve_48=0.97736
amp_velcurve_49=0.98861
amp_velcurve_50=1
amp_velcurve_51=0.98407
amp_velcurve_52=0.98723
amp_velcurve_53=0.99041
amp_velcurve_54=0.9936
amp_velcurve_55=0.99679
amp_velcurve_56=1
amp_velcurve_57=0.9138
amp_velcurve_58=0.92564
amp_velcurve_59=0.93764
amp_velcurve_60=0.94979
amp_velcurve_61=0.9621
amp_velcurve_62=0.97457
amp_velcurve_63=0.9872
amp_velcurve_64=1
amp_velcurve_65=0.9481
amp_velcurve_66=0.95535
amp_velcurve_67=0.96265
amp_velcurve_68=0.97001
amp_velcurve_69=0.97742
amp_velcurve_70=0.98489
amp_velcurve_71=0.99242
amp_velcurve_72=1
amp_velcurve_73=0.96352
amp_velcurve_74=0.96865
amp_velcurve_75=0.97381
amp_velcurve_76=0.97899
amp_velcurve_77=0.9842
amp_velcurve_78=0.98944
amp_velcurve_79=0.99471
amp_velcurve_80=1
amp_velcurve_81=0.94533
amp_velcurve_82=0.95295
amp_velcurve_83=0.96063
amp_velcurve_84=0.96838
amp_velcurve_85=0.97619
amp_velcurve_86=0.98406
amp_velcurve_87=0.992
amp_velcurve_88=1
amp_velcurve_89=0.90985
amp_velcurve_90=0.92221
amp_velcurve_91=0.93474
amp_velcurve_92=0.94744
amp_velcurve_93=0.96032
amp_velcurve_94=0.97337
amp_velcurve_95=0.98659
amp_velcurve_96=1
amp_velcurve_97=0.92759
amp_velcurve_98=0.9376
amp_velcurve_99=0.94773
amp_velcurve_100=0.95796
amp_velcurve_101=0.9683
amp_velcurve_102=0.97875
amp_velcurve_103=0.98932
amp_velcurve_104=1
amp_velcurve_105=0.9185
amp_velcurve_106=0.92972
amp_velcurve_107=0.94108
amp_velcurve_108=0.95258
amp_velcurve_109=0.96422
amp_velcurve_110=0.976
amp_velcurve_111=0.98793
amp_velcurve_112=1
amp_velcurve_113=0.94163
amp_velcurve_114=0.94976
amp_velcurve_115=0.95795
amp_velcurve_116=0.96622
amp_velcurve_117=0.97456
amp_velcurve_118=0.98296
amp_velcurve_119=0.99145
amp_velcurve_120=1
amp_velcurve_121=0.89232
amp_velcurve_122=0.90942
amp_velcurve_123=0.92686
amp_velcurve_124=0.94463
amp_velcurve_125=0.96273
amp_velcurve_126=0.98119
amp_velcurve_127=1
<region> sample=C1v1.flac lovel=1 hivel=26
<region> sample=C1v2.flac lovel=27 hivel=34
<region> sample=C1v3.flac lovel=35 hivel=36
<region> sample=C1v4.flac lovel=37 hivel=43
<region> sample=C1v5.flac lovel=44 hivel=46
<region> sample=C1v6.flac lovel=47 hivel=50
<region> sample=C1v7.flac lovel=51 hivel=56
<region> sample=C1v8.flac lovel=57 hivel=64
<region> sample=C1v9.flac lovel=65 hivel=72
<region> sample=C1v10.flac lovel=73 hivel=80
<region> sample=C1v11.flac lovel=81 hivel=88
<region> sample=C1v12.flac lovel=89 hivel=96
<region> sample=C1v13.flac lovel=97 hivel=104
<region> sample=C1v14.flac lovel=105 hivel=112
<region> sample=C1v15.flac lovel=113 hivel=120
<region> sample=C1v16.flac lovel=121 hivel=127
